<?xml version="1.0" encoding="utf-8"?>
<!-- Generator: Adobe Illustrator 18.1.1, SVG Export Plug-In . SVG Version: 6.00 Build 0)  -->
<svg version="1.1" id="Layer_1" xmlns="http://www.w3.org/2000/svg" xmlns:xlink="http://www.w3.org/1999/xlink" x="0px" y="0px"
	 viewBox="0 0 28.4 28.4" enable-background="new 0 0 28.4 28.4" xml:space="preserve">
<g>
	<g>
		<path fill="#FFFFFF" d="M2.9,18.8c3.5,2.4,7.1,4.7,10.6,7.1c0.3,0.2,0.9,0.2,1.3,0c3.5-2.4,7.1-4.7,10.6-7.1
			c1.3-0.9,0.1-3.1-1.3-2.2c-1.7,1.1-3.3,2.2-5,3.3c-1.3,0.9-2.6,1.7-3.9,2.6c-0.6,0.4-2.3,1.1-1.2,1.2c1.2,0.1-0.7-0.9-1.2-1.2
			c-1.2-0.8-2.3-1.6-3.5-2.3c-1.8-1.2-3.5-2.4-5.3-3.5C2.8,15.7,1.6,17.9,2.9,18.8L2.9,18.8z"/>
	</g>
</g>
</svg>
